<svg width="24" height="24" viewBox="0 0 24 24" fill="none" xmlns="http://www.w3.org/2000/svg">
<path fill-rule="evenodd" clip-rule="evenodd" d="M2 12C2 14.3649 2.8209 16.538 4.19329 18.25C6.02594 20.5362 8.84202 22 12 22C15.1066 22 17.8823 20.5834 19.7165 18.3609C21.143 16.6323 22 14.4162 22 12C22 6.47715 17.5228 2 12 2C6.47715 2 2 6.47715 2 12ZM12 14.5C9.56879 14.5 7.34022 15.3676 5.60701 16.8101C7.067 18.7475 9.38723 20 12 20C14.6128 20 16.933 18.7475 18.393 16.8101C16.6598 15.3676 14.4312 14.5 12 14.5ZM12 12.5C13.6569 12.5 15 11.1569 15 9.5C15 7.84315 13.6569 6.5 12 6.5C10.3431 6.5 9 7.84315 9 9.5C9 11.1569 10.3431 12.5 12 12.5Z" fill="black"/>
</svg>
