<svg width="24" height="24" viewBox="0 0 24 24" fill="none" xmlns="http://www.w3.org/2000/svg">
<path fill-rule="evenodd" clip-rule="evenodd" d="M12.002 22C17.5248 22 22.002 17.5228 22.002 12C22.002 6.47715 17.5248 2 12.002 2C6.47911 2 2.00195 6.47715 2.00195 12C2.00195 17.5228 6.47911 22 12.002 22ZM9.91617 8.5C9.52565 8.10948 8.89248 8.10948 8.50196 8.5C8.11143 8.89053 8.11143 9.52369 8.50196 9.91422L10.5877 12L8.50195 14.0858C8.11143 14.4763 8.11143 15.1095 8.50195 15.5C8.89248 15.8905 9.52564 15.8905 9.91616 15.5L12.002 13.4142L14.0877 15.5C14.4783 15.8905 15.1114 15.8905 15.502 15.5C15.8925 15.1095 15.8925 14.4763 15.502 14.0858L13.4162 12L15.502 9.91422C15.8925 9.52369 15.8925 8.89053 15.502 8.5C15.1114 8.10948 14.4783 8.10948 14.0877 8.5L12.002 10.5858L9.91617 8.5Z" fill="black"/>
</svg>
